<svg width="1200" height="750" viewBox="0 0 1200 750" fill="none" xmlns="http://www.w3.org/2000/svg">
  <rect width="1200" height="750" rx="40" fill="#0B1519"/>
  <circle cx="980" cy="120" r="210" fill="#0F4C4B" fill-opacity="0.55"/>
  <circle cx="240" cy="620" r="260" fill="#134B52" fill-opacity="0.35"/>
  <rect x="110" y="120" width="980" height="510" rx="28" fill="#10272C" stroke="#1A3A42" stroke-width="2"/>
  <rect x="170" y="185" width="350" height="26" rx="13" fill="#D7F7F1" fill-opacity="0.9"/>
  <rect x="170" y="230" width="260" height="14" rx="7" fill="#6EE7D8" fill-opacity="0.45"/>
  <rect x="170" y="258" width="320" height="14" rx="7" fill="#6EE7D8" fill-opacity="0.35"/>
  <rect x="170" y="286" width="230" height="14" rx="7" fill="#6EE7D8" fill-opacity="0.25"/>
  <rect x="170" y="360" width="860" height="180" rx="18" fill="#081113" stroke="#1A3A42" stroke-width="2"/>
  <path d="M220 470L300 390L382 450L475 356L556 430L655 330L760 430L860 360L950 420" stroke="#3DD4C2" stroke-width="10" stroke-linecap="round" stroke-linejoin="round"/>
  <circle cx="220" cy="470" r="12" fill="#D7F7F1"/>
  <circle cx="300" cy="390" r="12" fill="#D7F7F1"/>
  <circle cx="382" cy="450" r="12" fill="#D7F7F1"/>
  <circle cx="475" cy="356" r="12" fill="#D7F7F1"/>
  <circle cx="556" cy="430" r="12" fill="#D7F7F1"/>
  <circle cx="655" cy="330" r="12" fill="#D7F7F1"/>
  <circle cx="760" cy="430" r="12" fill="#D7F7F1"/>
  <circle cx="860" cy="360" r="12" fill="#D7F7F1"/>
  <circle cx="950" cy="420" r="12" fill="#D7F7F1"/>
  <rect x="170" y="585" width="200" height="18" rx="9" fill="#6EE7D8" fill-opacity="0.4"/>
  <rect x="390" y="585" width="160" height="18" rx="9" fill="#6EE7D8" fill-opacity="0.28"/>
  <rect x="570" y="585" width="210" height="18" rx="9" fill="#6EE7D8" fill-opacity="0.22"/>
  <rect x="810" y="585" width="150" height="18" rx="9" fill="#6EE7D8" fill-opacity="0.18"/>
</svg>